<svg id="Layer_1" xmlns="http://www.w3.org/2000/svg" width="405.6" height="128" viewBox="0 0 405.6 128"><style>.st0{fill:#d6001c}.st1{fill:#fff}</style><path class="st0" d="M64 128c35.3 0 64-28.7 64-64S99.3 0 64 0 0 28.7 0 64s28.7 64 64 64"/><path class="st1" d="M36.4 35.1v21.8C39.7 53 43.7 51 48.3 51c2.4 0 4.5.5 6.4 1.4s3.3 2 4.3 3.4 1.6 2.9 2 4.6c.4 1.7.5 4.3.5 7.9v23.3H51.2v-21c0-4.2-.2-6.8-.6-7.9-.4-1.1-1.1-2-2.1-2.7s-2.2-1-3.7-1c-1.7 0-3.2.4-4.6 1.3-1.4.9-2.3 2.1-3 3.8-.6 1.7-.9 4.2-.9 7.6v19.9H26.1V35.1h10.3zM77 35.1v21.8C80.3 53 84.3 51 88.9 51c2.4 0 4.5.5 6.4 1.4s3.3 2 4.3 3.4 1.6 2.9 2 4.6c.4 1.7.5 4.3.5 7.9v23.3H91.8v-21c0-4.2-.2-6.8-.6-7.9-.4-1.1-1.1-2-2.1-2.7s-2.2-1-3.7-1c-1.7 0-3.2.4-4.6 1.3-1.3.9-2.3 2.1-3 3.8-.6 1.7-.9 4.2-.9 7.6v19.9H66.7V35.1H77zM183.2 91V65.5h-22.7V91h-6.6V35.8h6.6v23.9h22.7V35.8h6.6V91h-6.6zM225.4 91l-10.6-22.1h-8V91h-6.6V35.8h16.9c8.9 0 15.2 6.4 15.2 16.5 0 9.9-5.6 14.7-11 15.7l11.6 23h-7.5zm.1-38.6c0-6.3-3.4-10.8-9.1-10.8h-9.5v21.5h9.5c5.7 0 9.1-4.4 9.1-10.7zM237.2 86.4l3-4.2c2.3 2.8 6.1 5.1 10.4 5.1 4.6 0 7.7-2.7 7.7-6.5 0-9.4-20-6.1-20-20 0-6 4.8-10.8 12.8-10.8 5.3 0 9.4 2.1 12.2 5.1l-2.8 4.1c-2-2.7-5.4-4.4-9.3-4.4-4.4 0-7.1 2.6-7.1 5.8 0 8.5 20 5.6 20 20 0 6.6-5.1 11.4-13.3 11.4-5.7 0-10.3-1.8-13.6-5.6zM276.8 85.3v21h-5.9V51h5.9v5.7c2.3-4.1 6.3-6.7 10.5-6.7 9 0 14.3 8.4 14.3 21 0 12.5-5.3 21-14.3 21-4.1 0-8.1-2.3-10.5-6.7zM295.4 71c0-8.6-3.1-15.7-9.6-15.7-3.7 0-7.5 3-9 6.5v18.3c1.6 3.5 5.3 6.6 9 6.6 6.5 0 9.6-7 9.6-15.7zM329.5 91v-4.3C326.9 90.3 323 92 319 92c-6.5 0-12.1-5-12.1-13.3 0-8.4 5.5-13.2 12.1-13.2 4.1 0 8 1.6 10.5 5.1v-7c0-5.5-3-8.5-8.2-8.5-3.7 0-7 1.4-10 4.9l-2.7-4.2c3.8-4 8.5-5.8 13.6-5.8 8 0 13.3 3.9 13.3 13v28h-6zm0-8.3v-7.6c-1.8-3.4-5.1-5.1-8.6-5.1-5 0-8 3.9-8 8.9s3 8.9 8 8.9c3.4-.1 6.7-1.8 8.6-5.1zM342.7 71c0-11.8 6.3-21 16.6-21 5.6 0 8.9 2.2 11.4 5.3l-3.2 4.1c-2.2-2.9-4.6-4.1-7.7-4.1-7.1 0-10.9 7.1-10.9 15.7 0 8.5 3.7 15.7 10.9 15.7 3.1 0 5.6-1.2 7.7-4.1l3.2 4.1c-2.5 3.1-5.9 5.3-11.4 5.3-10.3 0-16.6-9.2-16.6-21zM373.5 71c0-11.6 6.1-21 16.2-21 10.5 0 15.8 9.4 15.8 21.1V73h-25.9c.2 8 4.4 14.1 11.5 14.1 3.5 0 7-1.7 9.5-4.9l3.1 3.5c-3.2 4-7.8 6.4-13.2 6.4-10.5-.1-17-8.8-17-21.1zm16.2-16c-7 0-9.9 7.7-10 13.6h20c-.1-6.1-2.8-13.6-10-13.6z"/></svg>